<?xml version="1.0" encoding="UTF-8" standalone="no"?>
<!DOCTYPE svg PUBLIC "-//W3C//DTD SVG 1.1//EN" "http://www.w3.org/Graphics/SVG/1.1/DTD/svg11.dtd">
<svg xmlns="http://www.w3.org/2000/svg" version="1.1" viewBox="0 0 288 288">
<g stroke-width="2.00" fill="none" stroke-linecap="butt">
<path stroke="#0b021e" vector-effect="non-scaling-stroke" d="
  M 219.46 117.00
  C 218.00 117.82 219.19 113.87 217.76 115.43
  C 217.04 116.22 217.56 117.95 218.18 118.64
  A 1.09 1.07 -62.3 0 1 218.43 119.48
  Q 218.29 120.69 219.06 121.48
  A 1.28 0.94 -73.7 0 1 219.36 122.31
  L 219.37 123.98
  A 0.68 0.52 84.7 0 1 218.97 124.61
  C 216.06 125.30 216.48 122.19 214.50 120.95
  Q 214.12 120.71 213.87 120.25
  C 212.41 117.53 210.24 121.64 208.05 118.58
  A 0.61 0.58 -28.8 0 0 207.33 118.39
  Q 205.65 119.10 204.31 117.87
  A 1.42 1.36 -21.1 0 0 203.45 117.51
  Q 202.04 117.43 201.18 116.20
  A 0.82 0.67 64.4 0 0 200.43 115.85
  Q 199.22 116.09 198.51 116.99
  A 0.67 0.61 -59.6 0 1 197.77 117.22
  Q 195.28 116.21 193.57 114.17
  A 1.13 0.86 64.1 0 0 192.76 113.76
  Q 191.47 113.80 190.70 114.77
  A 0.40 0.39 41.3 0 1 190.11 114.80
  L 188.19 112.89
  A 1.13 0.82 -22.7 0 0 187.30 112.68
  Q 184.71 113.13 182.18 112.11
  A 1.51 1.32 -39.9 0 0 181.25 112.09
  Q 177.70 113.17 176.20 109.65
  A 1.50 0.96 82.7 0 0 175.60 108.93
  Q 174.70 108.47 173.62 108.75
  A 0.79 0.74 -26.2 0 1 172.84 108.51
  Q 170.68 105.95 167.67 107.53
  A 0.63 0.57 -31.7 0 1 166.91 107.39
  L 166.00 106.16
  A 0.61 0.57 -29.7 0 0 165.29 105.99
  C 162.75 107.09 161.08 98.20 160.54 96.49
  Q 160.38 95.98 160.18 96.47
  C 159.20 98.83 161.26 99.67 160.46 101.75"
/>
<path stroke="#0c021e" vector-effect="non-scaling-stroke" d="
  M 130.71 90.98
  Q 128.79 92.60 128.09 95.04
  Q 128.04 95.23 128.08 95.04
  Q 128.59 92.32 126.88 90.58
  A 1.07 0.86 -23.3 0 0 126.03 90.34
  Q 123.74 90.72 123.31 88.81
  Q 123.22 88.39 122.92 88.70
  Q 121.30 90.44 119.53 88.61
  A 0.43 0.40 -45.5 0 0 118.93 88.64
  Q 118.49 89.12 117.81 88.80
  A 0.80 0.76 39.3 0 0 117.01 88.86
  Q 115.94 89.62 114.78 89.16
  A 1.53 0.96 76.3 0 1 114.10 88.50
  Q 112.30 85.23 108.52 85.02
  A 1.61 1.05 56.9 0 1 107.68 84.65
  Q 107.08 84.16 106.17 84.06
  A 0.63 0.59 87.4 0 1 105.63 83.54
  Q 105.43 82.32 104.30 82.04
  A 0.87 0.71 -60.5 0 0 103.51 82.35
  Q 102.59 83.50 101.21 84.16
  A 0.65 0.57 57.9 0 1 100.47 83.94
  L 99.59 82.79
  A 1.12 0.92 -15.0 0 0 98.78 82.42
  Q 95.84 82.40 93.35 80.98
  C 92.59 80.55 92.52 79.61 91.28 79.83
  A 1.24 0.95 -26.5 0 1 90.41 79.66
  Q 88.81 78.52 87.18 79.45
  A 1.04 0.72 -40.9 0 1 86.29 79.55
  L 84.62 78.64
  A 0.54 0.50 30.9 0 0 83.95 78.78
  Q 83.30 79.73 82.28 79.81
  A 0.40 0.35 -84.3 0 1 81.93 79.31
  L 84.15 70.30
  Q 84.28 69.77 83.80 70.03
  L 83.00 70.46"
/>
<path stroke="#ff5a04" vector-effect="non-scaling-stroke" d="
  M 122.00 210.54
  L 120.98 211.08
  A 0.54 0.53 62.9 0 0 120.76 211.78
  C 122.01 214.43 123.89 214.90 126.50 215.84
  C 129.76 217.01 132.42 218.87 135.67 220.11
  C 137.04 220.63 137.96 221.81 139.50 222.36
  C 144.56 224.14 149.28 226.79 151.82 227.91
  Q 161.89 232.38 167.46 235.40
  C 168.86 236.17 170.35 235.94 171.78 236.84
  C 173.91 238.20 178.15 241.78 180.55 239.64
  A 0.64 0.29 31.4 0 1 181.14 239.71
  L 181.63 239.96"
/>
<path stroke="#ff510b" vector-effect="non-scaling-stroke" d="
  M 188.29 231.25
  Q 187.91 230.26 188.29 229.22
  A 0.47 0.46 -70.6 0 0 188.01 228.61
  C 186.81 228.22 185.91 227.44 184.70 227.21
  C 180.70 226.46 177.17 223.75 174.46 222.55
  Q 163.77 217.79 161.00 216.00
  Q 159.13 214.81 157.36 214.56
  C 154.90 214.21 153.14 213.53 151.00 213.29"
/>
</g>
<path fill="#07011a" d="
  M 219.46 117.00
  C 218.00 117.82 219.19 113.87 217.76 115.43
  C 217.04 116.22 217.56 117.95 218.18 118.64
  A 1.09 1.07 -62.3 0 1 218.43 119.48
  Q 218.29 120.69 219.06 121.48
  A 1.28 0.94 -73.7 0 1 219.36 122.31
  L 219.37 123.98
  A 0.68 0.52 84.7 0 1 218.97 124.61
  C 216.06 125.30 216.48 122.19 214.50 120.95
  Q 214.12 120.71 213.87 120.25
  C 212.41 117.53 210.24 121.64 208.05 118.58
  A 0.61 0.58 -28.8 0 0 207.33 118.39
  Q 205.65 119.10 204.31 117.87
  A 1.42 1.36 -21.1 0 0 203.45 117.51
  Q 202.04 117.43 201.18 116.20
  A 0.82 0.67 64.4 0 0 200.43 115.85
  Q 199.22 116.09 198.51 116.99
  A 0.67 0.61 -59.6 0 1 197.77 117.22
  Q 195.28 116.21 193.57 114.17
  A 1.13 0.86 64.1 0 0 192.76 113.76
  Q 191.47 113.80 190.70 114.77
  A 0.40 0.39 41.3 0 1 190.11 114.80
  L 188.19 112.89
  A 1.13 0.82 -22.7 0 0 187.30 112.68
  Q 184.71 113.13 182.18 112.11
  A 1.51 1.32 -39.9 0 0 181.25 112.09
  Q 177.70 113.17 176.20 109.65
  A 1.50 0.96 82.7 0 0 175.60 108.93
  Q 174.70 108.47 173.62 108.75
  A 0.79 0.74 -26.2 0 1 172.84 108.51
  Q 170.68 105.95 167.67 107.53
  A 0.63 0.57 -31.7 0 1 166.91 107.39
  L 166.00 106.16
  A 0.61 0.57 -29.7 0 0 165.29 105.99
  C 162.75 107.09 161.08 98.20 160.54 96.49
  Q 160.38 95.98 160.18 96.47
  C 159.20 98.83 161.26 99.67 160.46 101.75
  Q 154.55 82.52 148.94 63.21
  C 147.89 59.60 145.98 55.26 141.65 58.15
  Q 140.10 59.18 139.39 61.64
  Q 135.14 76.35 130.71 90.98
  Q 128.79 92.60 128.09 95.04
  Q 128.04 95.23 128.08 95.04
  Q 128.59 92.32 126.88 90.58
  A 1.07 0.86 -23.3 0 0 126.03 90.34
  Q 123.74 90.72 123.31 88.81
  Q 123.22 88.39 122.92 88.70
  Q 121.30 90.44 119.53 88.61
  A 0.43 0.40 -45.5 0 0 118.93 88.64
  Q 118.49 89.12 117.81 88.80
  A 0.80 0.76 39.3 0 0 117.01 88.86
  Q 115.94 89.62 114.78 89.16
  A 1.53 0.96 76.3 0 1 114.10 88.50
  Q 112.30 85.23 108.52 85.02
  A 1.61 1.05 56.9 0 1 107.68 84.65
  Q 107.08 84.16 106.17 84.06
  A 0.63 0.59 87.4 0 1 105.63 83.54
  Q 105.43 82.32 104.30 82.04
  A 0.87 0.71 -60.5 0 0 103.51 82.35
  Q 102.59 83.50 101.21 84.16
  A 0.65 0.57 57.9 0 1 100.47 83.94
  L 99.59 82.79
  A 1.12 0.92 -15.0 0 0 98.78 82.42
  Q 95.84 82.40 93.35 80.98
  C 92.59 80.55 92.52 79.61 91.28 79.83
  A 1.24 0.95 -26.5 0 1 90.41 79.66
  Q 88.81 78.52 87.18 79.45
  A 1.04 0.72 -40.9 0 1 86.29 79.55
  L 84.62 78.64
  A 0.54 0.50 30.9 0 0 83.95 78.78
  Q 83.30 79.73 82.28 79.81
  A 0.40 0.35 -84.3 0 1 81.93 79.31
  L 84.15 70.30
  Q 84.28 69.77 83.80 70.03
  L 83.00 70.46
  Q 96.00 26.80 99.45 16.98
  C 102.37 8.69 109.22 4.74 117.84 4.53
  Q 141.70 3.94 165.55 4.37
  C 179.79 4.63 185.81 7.34 189.95 20.73
  Q 204.84 68.82 219.46 117.00
  Z"
/>
<path fill="#100322" d="
  M 130.71 90.98
  L 106.93 171.95
  A 1.25 1.25 -86.6 0 1 105.94 172.83
  Q 74.48 178.38 45.75 193.04
  Q 45.08 193.39 45.30 192.67
  L 83.00 70.46
  L 83.80 70.03
  Q 84.28 69.77 84.15 70.30
  L 81.93 79.31
  A 0.40 0.35 -84.3 0 0 82.28 79.81
  Q 83.30 79.73 83.95 78.78
  A 0.54 0.50 30.9 0 1 84.62 78.64
  L 86.29 79.55
  A 1.04 0.72 -40.9 0 0 87.18 79.45
  Q 88.81 78.52 90.41 79.66
  A 1.24 0.95 -26.5 0 0 91.28 79.83
  C 92.52 79.61 92.59 80.55 93.35 80.98
  Q 95.84 82.40 98.78 82.42
  A 1.12 0.92 -15.0 0 1 99.59 82.79
  L 100.47 83.94
  A 0.65 0.57 57.9 0 0 101.21 84.16
  Q 102.59 83.50 103.51 82.35
  A 0.87 0.71 -60.5 0 1 104.30 82.04
  Q 105.43 82.32 105.63 83.54
  A 0.63 0.59 87.4 0 0 106.17 84.06
  Q 107.08 84.16 107.68 84.65
  A 1.61 1.05 56.9 0 0 108.52 85.02
  Q 112.30 85.23 114.10 88.50
  A 1.53 0.96 76.3 0 0 114.78 89.16
  Q 115.94 89.62 117.01 88.86
  A 0.80 0.76 39.3 0 1 117.81 88.80
  Q 118.49 89.12 118.93 88.64
  A 0.43 0.40 -45.5 0 1 119.53 88.61
  Q 121.30 90.44 122.92 88.70
  Q 123.22 88.39 123.31 88.81
  Q 123.74 90.72 126.03 90.34
  A 1.07 0.86 -23.3 0 1 126.88 90.58
  Q 128.59 92.32 128.08 95.04
  Q 128.04 95.23 128.09 95.04
  Q 128.79 92.60 130.71 90.98
  Z"
/>
<path fill="#0f0321" d="
  M 219.46 117.00
  L 242.71 192.78
  Q 242.91 193.43 242.30 193.12
  Q 213.74 178.50 182.14 172.83
  A 1.01 1.00 86.5 0 1 181.36 172.13
  L 160.46 101.75
  C 161.26 99.67 159.20 98.83 160.18 96.47
  Q 160.38 95.98 160.54 96.49
  C 161.08 98.20 162.75 107.09 165.29 105.99
  A 0.61 0.57 -29.7 0 1 166.00 106.16
  L 166.91 107.39
  A 0.63 0.57 -31.7 0 0 167.67 107.53
  Q 170.68 105.95 172.84 108.51
  A 0.79 0.74 -26.2 0 0 173.62 108.75
  Q 174.70 108.47 175.60 108.93
  A 1.50 0.96 82.7 0 1 176.20 109.65
  Q 177.70 113.17 181.25 112.09
  A 1.51 1.32 -39.9 0 1 182.18 112.11
  Q 184.71 113.13 187.30 112.68
  A 1.13 0.82 -22.7 0 1 188.19 112.89
  L 190.11 114.80
  A 0.40 0.39 41.3 0 0 190.70 114.77
  Q 191.47 113.80 192.76 113.76
  A 1.13 0.86 64.1 0 1 193.57 114.17
  Q 195.28 116.21 197.77 117.22
  A 0.67 0.61 -59.6 0 0 198.51 116.99
  Q 199.22 116.09 200.43 115.85
  A 0.82 0.67 64.4 0 1 201.18 116.20
  Q 202.04 117.43 203.45 117.51
  A 1.42 1.36 -21.1 0 1 204.31 117.87
  Q 205.65 119.10 207.33 118.39
  A 0.61 0.58 -28.8 0 1 208.05 118.58
  C 210.24 121.64 212.41 117.53 213.87 120.25
  Q 214.12 120.71 214.50 120.95
  C 216.48 122.19 216.06 125.30 218.97 124.61
  A 0.68 0.52 84.7 0 0 219.37 123.98
  L 219.36 122.31
  A 1.28 0.94 -73.7 0 0 219.06 121.48
  Q 218.29 120.69 218.43 119.48
  A 1.09 1.07 -62.3 0 0 218.18 118.64
  C 217.56 117.95 217.04 116.22 217.76 115.43
  C 219.19 113.87 218.00 117.82 219.46 117.00
  Z"
/>
<path fill="#ff5d01" d="
  M 122.00 210.54
  L 120.98 211.08
  A 0.54 0.53 62.9 0 0 120.76 211.78
  C 122.01 214.43 123.89 214.90 126.50 215.84
  C 129.76 217.01 132.42 218.87 135.67 220.11
  C 137.04 220.63 137.96 221.81 139.50 222.36
  C 144.56 224.14 149.28 226.79 151.82 227.91
  Q 161.89 232.38 167.46 235.40
  C 168.86 236.17 170.35 235.94 171.78 236.84
  C 173.91 238.20 178.15 241.78 180.55 239.64
  A 0.64 0.29 31.4 0 1 181.14 239.71
  L 181.63 239.96
  Q 173.67 246.38 165.07 251.92
  C 153.21 259.55 148.79 270.05 154.74 284.05
  Q 155.10 284.89 154.27 284.49
  Q 138.97 277.03 135.43 261.04
  C 133.59 252.69 137.42 238.13 127.00 234.53
  C 118.49 231.60 109.89 236.93 108.57 246.10
  Q 108.41 247.21 107.68 246.36
  C 95.73 232.53 93.01 214.39 97.56 196.97
  Q 97.78 196.14 98.27 196.85
  C 103.47 204.40 113.43 208.27 122.00 210.54
  Z"
/>
<path fill="#ff4c0e" d="
  M 188.29 231.25
  Q 187.91 230.26 188.29 229.22
  A 0.47 0.46 -70.6 0 0 188.01 228.61
  C 186.81 228.22 185.91 227.44 184.70 227.21
  C 180.70 226.46 177.17 223.75 174.46 222.55
  Q 163.77 217.79 161.00 216.00
  Q 159.13 214.81 157.36 214.56
  C 154.90 214.21 153.14 213.53 151.00 213.29
  C 164.56 213.04 180.17 210.03 191.33 201.82
  A 0.47 0.47 -26.0 0 1 192.06 202.07
  Q 196.31 217.81 188.29 231.25
  Z"
/>
<path fill="#ff5607" d="
  M 122.00 210.54
  Q 136.31 213.90 151.00 213.29
  C 153.14 213.53 154.90 214.21 157.36 214.56
  Q 159.13 214.81 161.00 216.00
  Q 163.77 217.79 174.46 222.55
  C 177.17 223.75 180.70 226.46 184.70 227.21
  C 185.91 227.44 186.81 228.22 188.01 228.61
  A 0.47 0.46 -70.6 0 1 188.29 229.22
  Q 187.91 230.26 188.29 231.25
  Q 185.52 235.97 181.63 239.96
  L 181.14 239.71
  A 0.64 0.29 31.4 0 0 180.55 239.64
  C 178.15 241.78 173.91 238.20 171.78 236.84
  C 170.35 235.94 168.86 236.17 167.46 235.40
  Q 161.89 232.38 151.82 227.91
  C 149.28 226.79 144.56 224.14 139.50 222.36
  C 137.96 221.81 137.04 220.63 135.67 220.11
  C 132.42 218.87 129.76 217.01 126.50 215.84
  C 123.89 214.90 122.01 214.43 120.76 211.78
  A 0.54 0.53 62.9 0 1 120.98 211.08
  L 122.00 210.54
  Z"
/>
</svg>
